<svg width="400" height="442" viewBox="0 0 400 442" fill="none" xmlns="http://www.w3.org/2000/svg">
<path d="M200.246 241.43L199.173 241.065V441.597L200.246 441.962L400 321.441V120.909L200.246 241.43Z" fill="#B68157"/>
<path d="M0.957275 120.909V321.441L199.173 441.597V241.065L0.957275 120.909Z" fill="#D29F70"/>
<path d="M126.148 217.916V224.452C126.148 225.747 125.376 226.918 124.851 227.925C122.958 231.637 117.894 233.336 113.941 230.966L79.6065 209.8C77.3324 208.435 76.594 205.967 76.594 203.311V196.775C76.594 193.709 77.5767 191.244 79.9491 190.023C82.1755 188.897 84.5479 188.827 86.9652 190.287L122.217 211.431C124.491 212.793 126.148 215.261 126.148 217.916Z" fill="#F6DFCA"/>
<path d="M126.148 217.917V224.453C126.148 225.747 125.376 226.918 124.851 227.926C122.624 229.051 119.64 229.122 117.223 227.662L82.5656 206.518C80.2915 205.128 79.205 202.663 79.205 200.029V193.468C79.205 192.199 79.0983 191.025 79.6036 190.02C81.8301 188.895 84.3765 188.824 86.7939 190.284L122.133 211.428C124.404 212.793 126.148 215.261 126.148 217.917Z" fill="#B68157"/>
<path d="M8.78223 292.042V314.124L55.7279 342.001V319.919L8.78223 292.042Z" fill="#824737"/>
<path d="M198.665 199.266L198.645 0.0140381L1.15967 120.204L164.943 219.918L198.665 199.266Z" fill="#B68157"/>
<path d="M198.665 199.266L164.943 219.918L199.886 241.194L233.296 220.674L198.665 199.266Z" fill="#F6C99F"/>
<path d="M198.645 0.0140381L198.665 199.266L233.299 220.671L397.103 120.061L198.645 0.0140381ZM315.826 110.597C313.933 114.308 309.16 116.007 305.207 113.637L270.435 92.4707C268.161 91.1063 266.985 88.6384 266.985 85.9824V79.4463C266.985 76.4506 268.484 74.0361 270.769 72.7867C270.784 72.7586 270.758 72.7221 270.772 72.6941C271.895 72.1269 273.136 71.8293 274.416 71.8602C275.688 71.8743 276.98 72.2168 278.21 72.958L313.035 94.1019C315.309 95.4664 316.542 97.9343 316.542 100.59V107.126C316.539 108.418 316.353 109.591 315.826 110.597Z" fill="#D29F70"/>
<path d="M313.029 94.0991L278.047 72.9552C276.82 72.214 275.596 71.8715 274.324 71.8574C275.582 71.8855 276.901 72.2308 278.103 72.9552L312.982 94.0991C315.256 95.4636 316.539 97.9315 316.539 100.587V107.124C316.539 108.415 316.351 109.589 315.826 110.597C313.599 111.722 310.907 111.793 308.49 110.333L273.395 89.1887C271.121 87.7989 269.596 85.3338 269.596 82.7003V76.139C269.596 74.9064 270.127 73.7694 270.604 72.7839C268.321 74.0333 266.988 76.4478 266.988 79.4435V85.9796C266.988 88.6384 268.24 91.1035 270.514 92.4679L305.393 113.634C309.343 116.004 313.95 114.305 315.843 110.594C316.37 109.589 316.542 108.415 316.542 107.121V100.585C316.539 97.9287 315.306 95.4636 313.029 94.0991Z" fill="#F6DFCA"/>
<path d="M274.4 71.8575C273.119 71.8295 271.862 72.1243 270.741 72.6914C270.727 72.7195 270.722 72.7559 270.708 72.784C270.761 72.7559 270.809 72.7195 270.862 72.6914C271.957 72.1383 273.167 71.8435 274.4 71.8575Z" fill="#B68157"/>
<path d="M199.044 241.371L0 120.909L198.631 0L398.501 120.906L199.044 241.371ZM9.58794 120.898L199.047 235.559L388.882 120.9L198.64 5.8173L9.58794 120.898Z" fill="#F6DFCA"/>
</svg>
