<svg width="20" height="20" viewBox="0 0 20 20" fill="none" xmlns="http://www.w3.org/2000/svg">
<g clip-path="url(#clip0_62_37)">
<path d="M11.7166 8.28329L9.99998 7.49996L11.7166 6.71663L12.5 4.99996L13.2833 6.71663L15 7.49996L13.2833 8.28329L12.5 9.99996L11.7166 8.28329ZM3.33331 11.6666L4.11665 9.94996L5.83331 9.16663L4.11665 8.38329L3.33331 6.66663L2.54998 8.38329L0.833313 9.16663L2.54998 9.94996L3.33331 11.6666ZM7.08331 7.49996L7.99165 5.49163L9.99998 4.58329L7.99165 3.67496L7.08331 1.66663L6.17498 3.67496L4.16665 4.58329L6.17498 5.49163L7.08331 7.49996ZM3.74998 17.0833L8.74998 12.075L12.0833 15.4083L19.1666 7.44163L17.9916 6.26663L12.0833 12.9083L8.74998 9.57496L2.49998 15.8333L3.74998 17.0833Z" fill="#0F172A"/>
</g>
<defs>
<clipPath id="clip0_62_37">
<rect width="20" height="20" fill="white"/>
</clipPath>
</defs>
</svg>
